name C:\Users\r0593348\3dpredictsim\Results\Batchsim_tmt_linear\Pog_s1_tmt_bCst_d05_k1000_ig24_act.mot
datacolumns 128
datarows 4
range 0.60592212 0.64227744
endheader
time	pelvis_tilt	pelvis_list	pelvis_rotation	pelvis_tx	pelvis_ty	pelvis_tz	hip_flexion_l	hip_adduction_l	hip_rotation_l	hip_flexion_r	hip_adduction_r	hip_rotation_r	knee_angle_l	knee_angle_r	ankle_angle_l	ankle_angle_r	subtalar_angle_l	subtalar_angle_r	tmt_angle_l	tmt_angle_r	mtp_angle_l	mtp_angle_r	lumbar_extension	lumbar_bending	lumbar_rotation	arm_flex_l	arm_add_l	arm_rot_l	arm_flex_r	arm_add_r	arm_rot_r	elbow_flex_l	elbow_flex_r	pro_sup_l	pro_sup_r	glut_med1_l/activation	glut_med2_l/activation	glut_med3_l/activation	glut_min1_l/activation	glut_min2_l/activation	glut_min3_l/activation	semimem_l/activation	semiten_l/activation	bifemlh_l/activation	bifemsh_l/activation	sar_l/activation	add_long_l/activation	add_brev_l/activation	add_mag1_l/activation	add_mag2_l/activation	add_mag3_l/activation	tfl_l/activation	pect_l/activation	grac_l/activation	glut_max1_l/activation	glut_max2_l/activation	glut_max3_l/activation	iliacus_l/activation	psoas_l/activation	quad_fem_l/activation	gem_l/activation	peri_l/activation	rect_fem_l/activation	vas_med_l/activation	vas_int_l/activation	vas_lat_l/activation	med_gas_l/activation	lat_gas_l/activation	soleus_l/activation	tib_post_l/activation	flex_dig_l/activation	flex_hal_l/activation	tib_ant_l/activation	per_brev_l/activation	per_long_l/activation	per_tert_l/activation	ext_dig_l/activation	ext_hal_l/activation	ercspn_l/activation	intobl_l/activation	extobl_l/activation	glut_med1_r/activation	glut_med2_r/activation	glut_med3_r/activation	glut_min1_r/activation	glut_min2_r/activation	glut_min3_r/activation	semimem_r/activation	semiten_r/activation	bifemlh_r/activation	bifemsh_r/activation	sar_r/activation	add_long_r/activation	add_brev_r/activation	add_mag1_r/activation	add_mag2_r/activation	add_mag3_r/activation	tfl_r/activation	pect_r/activation	grac_r/activation	glut_max1_r/activation	glut_max2_r/activation	glut_max3_r/activation	iliacus_r/activation	psoas_r/activation	quad_fem_r/activation	gem_r/activation	peri_r/activation	rect_fem_r/activation	vas_med_r/activation	vas_int_r/activation	vas_lat_r/activation	med_gas_r/activation	lat_gas_r/activation	soleus_r/activation	tib_post_r/activation	flex_dig_r/activation	flex_hal_r/activation	tib_ant_r/activation	per_brev_r/activation	per_long_r/activation	per_tert_r/activation	ext_dig_r/activation	ext_hal_r/activation	ercspn_r/activation	intobl_r/activation	extobl_r/activation	
          0.60592212	         -2.92973599	          1.41602448	         -7.79518854	          0.75740264	          0.85645727	          0.00251242	         33.16538167	          1.01784546	         -1.16692255	        -15.85901702	         -2.17363445	          8.24364654	        -16.78358514	        -16.37637081	          8.47972223	         -7.57786412	          1.00018327	         14.59310617	          0.02391681	          1.00214756	         -0.08802139	         29.10479064	         -0.54076078	          0.75325089	          2.69240286	        -10.24645232	        -13.59576929	         13.06424119	          4.04930983	        -13.51628369	         18.42539865	         14.76909470	         42.77252511	         86.51662706	         86.51662706	          0.05000031	          0.05000021	          0.05000036	          0.05000041	          0.05000042	          0.05000104	          0.13456145	          0.06009868	          0.13386947	          0.05000164	          0.06001428	          0.06806355	          0.10881055	          0.16281155	          0.15121934	          0.12136122	          0.05000106	          0.06009633	          0.06009895	          0.05000037	          0.05000127	          0.10574308	          0.06009889	          0.06182888	          0.18530153	          0.05000647	          0.05129062	          0.05000053	          0.11724204	          0.12091146	          0.10444690	          0.06009870	          0.06009870	          0.06009869	          0.05000015	          0.05000107	          0.06007368	          0.52890221	          0.32905869	          0.19380941	          0.14394736	          0.58252191	          0.33645900	          0.05012299	          0.12610724	          0.10436428	          0.14778005	          0.08682750	          0.07366818	          0.20483431	          0.13374396	          0.08684088	          0.05000221	          0.05000030	          0.05000028	          0.05000111	          0.09725818	          0.05100879	          0.05000034	          0.05000044	          0.05000065	          0.05000035	          0.18133600	          0.05000466	          0.05000127	          0.05000558	          0.05000201	          0.05000065	          0.36210363	          0.56273049	          0.05000055	          0.05000178	          0.05138739	          0.20675914	          0.08905224	          0.07863618	          0.08495903	          0.15094542	          0.22888552	          0.05741838	          0.15355408	          0.18256438	          0.19856835	          0.05000199	          0.31456921	          0.31695885	          0.05000014	          0.26471013	          0.05000034	          0.05000001	          0.05000004	          0.05000008	
          0.61804056	         -2.92400136	          1.35360046	         -7.96750181	          0.77689435	          0.85508868	          0.00218146	         32.47957914	          1.28302127	         -0.96444937	        -16.06277266	         -2.37557139	          7.97873370	        -16.76770356	        -17.65465089	          7.86383627	        -10.33572080	          0.60082016	         15.08459806	          0.04108956	          0.91163680	         -0.08928872	         30.53392769	         -0.28444195	          0.60540547	          2.78802674	        -11.66356593	        -13.58787155	         12.87031654	          3.55839688	        -13.57975859	         18.61408031	         14.85928755	         43.99918750	         86.51662706	         86.51662706	          0.05917153	          0.06644546	          0.07610422	          0.05000130	          0.05000226	          0.05000126	          0.11195042	          0.05000019	          0.11137472	          0.05000010	          0.05000048	          0.05662661	          0.09052667	          0.30450358	          0.21037135	          0.12935684	          0.05000134	          0.05000138	          0.05000057	          0.06009876	          0.10757182	          0.12508035	          0.05000025	          0.05143955	          0.37651235	          0.07012682	          0.06772521	          0.07223706	          0.24260483	          0.23789500	          0.20902285	          0.05000000	          0.05000002	          0.05000000	          0.05000004	          0.05004902	          0.05000026	          0.68853095	          0.32329753	          0.21752804	          0.52649216	          0.65081250	          0.41477130	          0.05000000	          0.10491678	          0.08682741	          0.12294785	          0.07223752	          0.06129049	          0.17041503	          0.11127035	          0.07224871	          0.05000226	          0.05000017	          0.05000028	          0.05000015	          0.08091560	          0.15802594	          0.13917028	          0.19156569	          0.06013700	          0.05010320	          0.15086522	          0.05183378	          0.05000198	          0.05001812	          0.05001140	          0.05010332	          0.30125749	          0.46817208	          0.07223858	          0.07223734	          0.06009998	          0.17201632	          0.09499212	          0.12009288	          0.08377960	          0.12558127	          0.19042469	          0.05000001	          0.12775159	          0.15188717	          0.16520189	          0.26684149	          0.34607615	          0.30255289	          0.47452733	          0.42447870	          0.24263823	          0.05884731	          0.07223704	          0.05742417	
          0.63015900	         -2.91230927	          1.29719874	         -8.10401339	          0.79656094	          0.85342213	          0.00187006	         31.65006567	          1.52842001	         -0.69247802	        -16.06047923	         -2.53915603	          7.70731295	        -17.36366856	        -19.32401250	          7.23038137	        -12.81906196	          0.17157469	         15.53009800	         -0.03595286	          0.73848873	         -0.16172201	         31.06871083	         -0.02241281	          0.43840365	          2.86746730	        -13.05585687	        -13.58921146	         12.74012869	          3.00353009	        -13.65186393	         18.73195517	         14.92158994	         45.20805577	         86.51662706	         86.51662706	          0.24857586	          0.27429094	          0.38353763	          0.05000140	          0.05000048	          0.24306141	          0.11087466	          0.05000110	          0.11288996	          0.05000023	          0.05000081	          0.07223736	          0.15972718	          0.25333704	          0.22842637	          0.16798569	          0.05000022	          0.07223658	          0.12546020	          0.05000017	          0.17641098	          0.17365383	          0.05000387	          0.05000025	          0.31324509	          0.05834333	          0.27797134	          0.06009870	          0.20183874	          0.19792034	          0.17389971	          0.06009869	          0.06009870	          0.06009869	          0.05070713	          0.06009868	          0.06009873	          0.62612788	          0.38528575	          0.19392103	          0.43802308	          0.65756389	          0.34507548	          0.05373062	          0.08780341	          0.07223734	          0.10228876	          0.06009915	          0.05099161	          0.14177946	          0.09257310	          0.06010847	          0.05005151	          0.06009918	          0.06010065	          0.05000094	          0.06731928	          0.15188386	          0.27983404	          0.15937683	          0.06956431	          0.08658330	          0.12551460	          0.07017304	          0.06010184	          0.05006229	          0.05021073	          0.06009941	          0.25063565	          0.40210957	          0.06010011	          0.06009925	          0.05000111	          0.14311152	          0.07903013	          0.09991308	          0.06970170	          0.10447919	          0.15842663	          0.05000001	          0.10628482	          0.12636481	          0.13744217	          0.43536487	          0.43314922	          0.31388181	          0.70934571	          0.54363356	          0.37371601	          0.07993363	          0.06009868	          0.05000017	
          0.64227744	         -2.89773868	          1.24669373	         -8.20036866	          0.81606855	          0.85153319	          0.00155755	         30.73107629	          1.76452523	         -0.38954925	        -15.81975480	         -2.66506961	          7.44064239	        -18.06445148	        -21.42338510	          6.87910112	        -14.67949187	         -0.29475870	         15.90536860	         -0.01535040	          0.52506391	         -0.16779934	         29.90868439	          0.21695557	          0.25493890	          2.92987067	        -14.34685353	        -13.59987128	         12.72644351	          2.43870874	        -13.72549717	         18.78417042	         14.90516748	         46.37048274	         86.51662706	         86.51662706	          0.33289106	          0.42859917	          0.53707810	          0.20959709	          0.23069177	          0.37645935	          0.09224383	          0.10056350	          0.09392051	          0.07223699	          0.05000098	          0.06009899	          0.13288742	          0.21076791	          0.22075187	          0.18078335	          0.05000021	          0.06009872	          0.10437910	          0.28506758	          0.23790171	          0.20232531	          0.05000015	          0.05000015	          0.26060900	          0.05000106	          0.28974204	          0.05000003	          0.20460802	          0.25988402	          0.22114280	          0.05000001	          0.05000003	          0.05000000	          0.05000000	          0.05000014	          0.05000011	          0.77172955	          0.32054451	          0.16136437	          0.68915408	          0.72648336	          0.53436026	          0.07338337	          0.07304938	          0.06009893	          0.18493022	          0.05000067	          0.05000013	          0.15066761	          0.07701771	          0.05000847	          0.05000245	          0.05000051	          0.05000176	          0.05000017	          0.05602042	          0.12636236	          0.23281222	          0.13259609	          0.05787548	          0.07203453	          0.10442381	          0.05838247	          0.05000286	          0.05000198	          0.05000126	          0.05000113	          0.20852008	          0.39437363	          0.05000123	          0.05000124	          0.05000027	          0.11906374	          0.08682655	          0.08682654	          0.06142863	          0.08692301	          0.13180538	          0.05000002	          0.08842523	          0.10513113	          0.11434708	          0.40068690	          0.36074823	          0.26677037	          0.65567505	          0.72036004	          0.31091865	          0.12024380	          0.05000001	          0.05000004	
